# xmcd
#
# Track frame offsets: 
#        150
#        13425
#        27027
#        39814
#        52213
#        63527
#        76497
#        89987
#        102963
#        115301
#
# Disc length: 1783 seconds
#
# Revision: 0
# Processed by: cddbd v1.5.2PL0 Copyright (c) Steve Scherf et al.
# Submitted via: ExactAudioCopy v0.99pb5
#
DISCID=8806f50a
DTITLE=Various Artist - Motown Classics [CD 1)
DYEAR=2008
DGENRE=R&B
TTITLE0=My Girl - The Temptations
TTITLE1=Stop! In the Name of Love - Diana Ross and the Supremes
TTITLE2=Shop Around - Smokey Robinson and the Miracles
TTITLE3=I Can't Help Myself (Sugar Pie, Honey Bunch) - The Four Tops
TTITLE4=Please Mr. Postman - The Marvelettes
TTITLE5=My Guy - Mary Wells
TTITLE6=How Sweet It Is (To Be Loved By You) - Marvin Gaye
TTITLE7=My Cherie Amour - Stevie Wonder
TTITLE8=Heat Wave - Martha and the Vandellas
TTITLE9=Being With You - Smokey Robinson
EXTD=
EXTT0=
EXTT1=
EXTT2=
EXTT3=
EXTT4=
EXTT5=
EXTT6=
EXTT7=
EXTT8=
EXTT9=
PLAYORDER=
